<?xml version="1.0" encoding="UTF-8" standalone="no"?>
<!-- Created with Inkscape (http://www.inkscape.org/) -->

<svg
   width="21.641245mm"
   height="3.0649307mm"
   viewBox="0 0 21.641245 3.0649307"
   version="1.1"
   id="svg5"
   inkscape:version="1.1 (c4e8f9e, 2021-05-24)"
   sodipodi:docname="conpactwordmark.svg"
   xmlns:inkscape="http://www.inkscape.org/namespaces/inkscape"
   xmlns:sodipodi="http://sodipodi.sourceforge.net/DTD/sodipodi-0.dtd"
   xmlns:xlink="http://www.w3.org/1999/xlink"
   xmlns="http://www.w3.org/2000/svg"
   xmlns:svg="http://www.w3.org/2000/svg">
  <sodipodi:namedview
     id="namedview7"
     pagecolor="#ffffff"
     bordercolor="#666666"
     borderopacity="1.0"
     inkscape:pageshadow="2"
     inkscape:pageopacity="0.0"
     inkscape:pagecheckerboard="0"
     inkscape:document-units="mm"
     showgrid="false"
     inkscape:snap-bbox="true"
     inkscape:snap-nodes="true"
     inkscape:snap-bbox-midpoints="true"
     inkscape:snap-bbox-edge-midpoints="true"
     inkscape:bbox-nodes="true"
     inkscape:bbox-paths="true"
     inkscape:zoom="2.6773333"
     inkscape:cx="69.84562"
     inkscape:cy="4.4820718"
     inkscape:window-width="1440"
     inkscape:window-height="791"
     inkscape:window-x="0"
     inkscape:window-y="25"
     inkscape:window-maximized="1"
     inkscape:current-layer="layer1"
     inkscape:snap-page="true" />
  <defs
     id="defs2">
    <linearGradient
       inkscape:collect="always"
       id="linearGradient2412">
      <stop
         style="stop-color:#0088aa;stop-opacity:1"
         offset="0"
         id="stop2408" />
      <stop
         style="stop-color:#2ca089;stop-opacity:1"
         offset="1"
         id="stop2410" />
    </linearGradient>
    <clipPath
       id="SVGID_5_">
      <use
         id="use3018"
         style="overflow:visible"
         x="0"
         y="0"
         width="1"
         height="1"
         xlink:href="#SVGID_4_" />
    </clipPath>
    <clipPath
       id="SVGID_5_-7">
      <use
         id="use3018-6"
         style="overflow:visible"
         x="0"
         y="0"
         width="1"
         height="1"
         xlink:href="#SVGID_4_" />
    </clipPath>
    <clipPath
       id="SVGID_5_-1">
      <use
         id="use3018-4"
         style="overflow:visible"
         x="0"
         y="0"
         width="1"
         height="1"
         xlink:href="#SVGID_4_" />
    </clipPath>
    <clipPath
       id="SVGID_5_-12">
      <use
         id="use3018-3"
         style="overflow:visible"
         x="0"
         y="0"
         width="1"
         height="1"
         xlink:href="#SVGID_4_" />
    </clipPath>
    <clipPath
       id="SVGID_5_-3">
      <use
         id="use3018-41"
         style="overflow:visible"
         x="0"
         y="0"
         width="1"
         height="1"
         xlink:href="#SVGID_4_" />
    </clipPath>
    <clipPath
       id="SVGID_5_-0">
      <use
         id="use3018-2"
         style="overflow:visible"
         x="0"
         y="0"
         width="1"
         height="1"
         xlink:href="#SVGID_4_" />
    </clipPath>
    <clipPath
       id="SVGID_5_-8">
      <use
         id="use3018-65"
         style="overflow:visible"
         x="0"
         y="0"
         width="1"
         height="1"
         xlink:href="#SVGID_4_" />
    </clipPath>
    <clipPath
       id="SVGID_5_-06">
      <use
         id="use3018-1"
         style="overflow:visible"
         x="0"
         y="0"
         width="1"
         height="1"
         xlink:href="#SVGID_4_" />
    </clipPath>
    <clipPath
       id="SVGID_5_-82">
      <use
         id="use3018-9"
         style="overflow:visible"
         x="0"
         y="0"
         width="1"
         height="1"
         xlink:href="#SVGID_4_" />
    </clipPath>
    <defs
       id="defs3508">
      <path
         d="m 23.589,42.098 c 10.277,0 18.616,-8.373 18.616,-18.645 0,-10.207 -8.338,-18.581 -18.616,-18.581 -10.206,0 -18.615,8.374 -18.615,18.581 0,10.272 8.41,18.645 18.615,18.645 z"
         id="SVGID_3_" />
    </defs>
    <clipPath
       id="SVGID_4_">
      <use
         id="use3512"
         style="overflow:visible"
         x="0"
         y="0"
         width="1"
         height="1"
         xlink:href="#SVGID_3_" />
    </clipPath>
    <radialGradient
       cx="685.64899"
       cy="995.40698"
       r="96.022903"
       id="SVGID_5_-4"
       gradientUnits="userSpaceOnUse"
       gradientTransform="matrix(0.315,0,0,0.315,-193.939,-303.123)">
      <stop
         id="stop3515"
         style="stop-color:#ffffff;stop-opacity:1"
         offset="0" />
      <stop
         id="stop3517"
         style="stop-color:#57adff;stop-opacity:1"
         offset="0.59549999" />
      <stop
         id="stop3519"
         style="stop-color:#c9e6ff;stop-opacity:1"
         offset="0.99440002" />
    </radialGradient>
    <linearGradient
       x1="868.99597"
       y1="-1149.41"
       x2="868.99597"
       y2="-1269.5601"
       id="SVGID_6_"
       gradientUnits="userSpaceOnUse"
       gradientTransform="matrix(0.315,0,0,-0.315,-250.166,-358.406)">
      <stop
         id="stop3524"
         style="stop-color:#006a00;stop-opacity:1"
         offset="0" />
      <stop
         id="stop3526"
         style="stop-color:#004000;stop-opacity:1"
         offset="0.2" />
      <stop
         id="stop3528"
         style="stop-color:#00bd00;stop-opacity:1"
         offset="1" />
    </linearGradient>
    <radialGradient
       cx="685.64899"
       cy="995.40698"
       r="96.022903"
       id="radialGradient3603"
       xlink:href="#SVGID_5_-4"
       gradientUnits="userSpaceOnUse"
       gradientTransform="matrix(0.315,0,0,0.315,-193.939,-303.123)" />
    <radialGradient
       cx="24.223101"
       cy="24.3286"
       r="20.4727"
       id="SVGID_1_"
       gradientUnits="userSpaceOnUse"
       gradientTransform="matrix(7.6562887,0,0,7.6562887,-72.160001,452.7993)">
      <stop
         id="stop3491"
         style="stop-color:#000000;stop-opacity:0.40000001"
         offset="0.94760001" />
      <stop
         id="stop3493"
         style="stop-color:#000000;stop-opacity:0"
         offset="1" />
    </radialGradient>
    <linearGradient
       x1="625.57001"
       y1="1036.85"
       x2="755.56299"
       y2="1036.85"
       id="SVGID_2_"
       gradientUnits="userSpaceOnUse"
       gradientTransform="matrix(2.4117309,0,0,2.4117309,-1392.3581,-2431.4769)">
      <stop
         id="stop3498"
         style="stop-color:#0053bd;stop-opacity:1"
         offset="0" />
      <stop
         id="stop3500"
         style="stop-color:#0032a4;stop-opacity:1"
         offset="0.99440002" />
    </linearGradient>
    <linearGradient
       x1="690.94098"
       y1="977.15698"
       x2="690.94098"
       y2="1069.14"
       id="SVGID_7_"
       gradientUnits="userSpaceOnUse"
       gradientTransform="matrix(2.4117309,0,0,2.4117309,-1790.3582,-1817.4903)">
      <stop
         id="stop3533"
         style="stop-color:#ffffff;stop-opacity:1"
         offset="0" />
      <stop
         id="stop3535"
         style="stop-color:#94caff;stop-opacity:1"
         offset="1" />
    </linearGradient>
    <linearGradient
       x1="25.3057"
       y1="5.1606002"
       x2="19.853399"
       y2="32.2952"
       id="SVGID_8_"
       gradientUnits="userSpaceOnUse"
       gradientTransform="matrix(7.6562887,0,0,7.6562887,-188.32754,493.2054)">
      <stop
         id="stop3540"
         style="stop-color:#ffffff;stop-opacity:1"
         offset="0" />
      <stop
         id="stop3542"
         style="stop-color:#00a100;stop-opacity:1"
         offset="0.49720001" />
      <stop
         id="stop3544"
         style="stop-color:#000000;stop-opacity:1"
         offset="0.99440002" />
    </linearGradient>
    <path
       d="m 23.589,42.098 c 10.277,0 18.616,-8.373 18.616,-18.645 0,-10.207 -8.338,-18.581 -18.616,-18.581 -10.206,0 -18.615,8.374 -18.615,18.581 0,10.272 8.41,18.645 18.615,18.645 z"
       id="path1121" />
    <linearGradient
       inkscape:collect="always"
       xlink:href="#linearGradient2412"
       id="linearGradient3142"
       x1="96.970833"
       y1="113.49191"
       x2="118.61208"
       y2="110.42699"
       gradientUnits="userSpaceOnUse" />
  </defs>
  <g
     inkscape:label="Layer 1"
     inkscape:groupmode="layer"
     id="layer1"
     transform="translate(-96.970833,-110.42699)">
    <path
       d="m 200.897,116.781 c -1.04,0 -2.184,0.428 -3.348,1.089 2.741,-0.802 4.03,-1.089 3.348,-1.089 m 67.869,13.235 0.677,-9.925 -10.473,0.655 1.382,9.27 h 8.414 M 150.528,301.594 c -2.113,-1.988 -0.699,-10.608 -0.699,-10.608 0,0 -31.488,-16.545 -65.767,-26.493 -4.227,-1.225 -2.091,-9.932 2.091,-13.23 l -1.387,-9.297 c -0.693,-4.622 7.005,-27.148 14.698,-29.12 7.699,-2 -0.705,13.235 -0.705,13.235 l -7.688,4.637 c 0,0 9.092,10.592 11.199,10.592 2.092,0 5.591,-5.31 5.591,-5.31 l -9.79,-6.604 9.091,-3.988 0.574,-3.489 1.528,-0.487 15.062,-22.809 c 10.407,-4.258 23.199,-9.535 24.824,-10.31 2.806,-1.316 22.387,-12.569 25.887,-15.213 3.51,-2.666 11.187,-1.988 13.982,-1.988 2.812,0 7,-1.333 7.698,-8.631 0.699,-7.281 3.5,-8.608 5.607,-6.615 2.102,1.967 -2.107,5.293 2.796,6.615 4.893,1.333 9.092,4.644 12.597,1.333 2.557,-2.422 -0.867,-5.186 -3.17,-7.271 h 38.846 l 4.205,-11.947 -9.097,-1.321 -33.596,-3.305 v -3.982 l -2.676,0.456 c 3.635,-19.987 25.236,-16.692 8.972,-28.259 -0.986,-0.71 -15.213,22.418 -18.837,21.97 -6.562,-0.868 -15.029,-0.938 -16.833,1.197 -2.396,2.817 5.363,-9.688 12.038,-13.479 -7.964,2.346 -22.234,-4.903 -47.964,13.273 -8.701,6.15 -30.541,31.066 -39.528,40.645 -37.968,44.826 -41.029,83.175 -41.029,84.876 0,3.31 8.04,5.179 8.733,9.167 0.704,3.95 -13.29,17.218 -13.29,23.839 0,3.044 -7.005,36.114 8.381,77.496 13.647,39.257 40.054,73.879 43.445,76.046 l 9.725,-5.158 c 0,0 -16.091,-28.486 -16.784,-31.141 -0.693,-2.647 18.188,-41.068 27.295,-39.727 9.091,1.29 6.994,3.968 12.591,0.65 5.602,-3.292 9.096,-30.479 15.392,-33.113 6.301,-2.663 13.29,-5.969 12.596,-12.592 -0.729,-6.644 -24.513,-18.557 -26.604,-20.54 m 151.819,-194.755 -18.888,-6.626 3.5,10.608 15.388,-3.982 m -70.666,24.511 c 2.107,0 44.074,-27.81 39.881,-28.481 -4.188,-0.655 -4.887,0 -16.102,-1.327 -11.177,-1.322 -23.084,15.901 -25.875,18.562 -2.802,2.647 -1.859,11.246 2.096,11.246 m 192.63,199.731 5.42,-7.031 -5.42,-1.905 -4.062,5.104 -4.734,7.02 4.05,1.909 4.746,-5.097 m 23.687,22.995 -1.356,-10.228 h -8.785 l -0.682,7.659 -8.139,-1.269 -2.016,-8.3 -4.063,-2.559 -4.745,5.745 -4.735,-1.268 -1.366,4.452 5.428,1.301 v 41.479 l 19.159,4.615 c -0.445,0.759 -0.771,1.41 -0.879,1.756 -1.364,4.477 5.406,6.415 10.144,4.477 1.753,-0.705 12.797,-4.952 16.295,-13.283 4.879,-11.605 8.03,-28.314 8.877,-33.722 l -2.146,-4.693 -13.545,5.117 -7.466,-1.28 h 0.02 m -6.783,-169.88 c -30.978,-46.973 -105.41,-77.669 -105.41,-77.669 l -19.166,10.039 -2.722,-4.453 -6.761,-2.563 v 5.753 l 6.091,5.115 -4.053,1.912 -15.582,1.268 -35.211,19.158 3.381,15.322 -4.075,1.284 -2.015,3.186 11.512,17.223 0.671,5.759 -9.476,1.913 v 11.486 l -5.412,1.273 0.677,8.944 -46.058,31.938 1.355,17.852 c 3.38,4.475 29.798,31.293 29.798,31.293 0,0 30.464,1.263 37.237,-2.551 6.777,-3.831 2.025,3.831 4.068,5.748 2.016,1.923 2.709,15.322 4.724,16.601 2.038,1.271 0,8.923 2.709,11.502 2.71,2.534 2.71,33.19 2.71,33.19 0,0 16.252,27.445 16.252,34.468 0,7.021 -0.683,6.382 12.189,5.742 12.863,-0.628 15.571,-5.742 18.281,-7.649 2.709,-1.908 2.709,-6.383 5.417,-10.229 2.731,-3.839 7.455,-18.499 13.556,-23.602 6.078,-5.126 22.343,-8.96 23.686,-17.879 1.356,-8.949 7.443,-15.972 7.443,-15.972 l 29.278,-30.968 -0.823,4.161 -0.671,15.95 8.81,-3.187 -0.672,-17.25 -3.154,-3.343 0.446,-0.487 c 0,0 -2.037,-3.831 -4.734,-3.831 -2.712,0 -18.974,3.831 -21.672,3.196 -2.711,-0.644 -14.228,-31.292 -16.253,-32.549 -2.039,-1.279 -14.889,-22.359 -14.889,-22.359 0,0 29.776,35.751 34.521,49.795 2.751,8.18 13.089,0.563 21.497,-7.97 l 2.222,5.429 5.407,-1.29 -0.671,-6.381 h 6.088 v 9.573 l -2.024,5.115 -0.694,8.29 5.429,5.119 2.71,-4.459 8.776,-8.311 10.162,-5.108 2.721,5.108 1.354,7.027 -2.709,7.655 -5.417,4.47 -2.708,11.491 v 5.743 l -6.091,-3.836 -0.671,-12.118 -8.8,0.648 -4.051,10.842 6.089,8.948 14.216,1.92 11.507,-10.868 1.354,-21.044 5.127,-6.766 c 3.337,8.576 5.722,17.548 5.722,25.914 0,9.167 7.259,-4.628 3.707,-32.583 0.003,-0.001 -5.567,-66.402 -36.255,-97.088 z m -135.423,27.505 -36.561,-1.294 15.56,-12.759 h 8.127 l 12.874,8.928 v 5.125 m 44.706,-4.469 v 5.743 h -15.569 l 1.354,3.841 -9.493,1.289 -0.66,3.169 -6.772,-1.256 -12.2,-2.568 2.038,-3.181 2.037,-3.846 6.771,-7.022 2.72,5.115 10.142,-0.646 5.418,-5.754 20.999,3.836 -6.785,1.28 m 1.345,-8.305 -8.128,1.273 -1.343,-5.753 10.143,-1.268 1.366,-5.743 7.454,7.666 -9.492,3.814 v 0.011 m 39.289,198.535 -4.746,3.837 0.674,9.579 h 6.088 v -8.278 l 5.441,-7.043 v -14.672 l -3.404,-0.662 -4.053,17.239 v 0 m -45.369,-19.135 c 0,0 -4.746,1.234 0.662,3.185 5.418,1.93 27.09,-31.271 27.09,-31.271 l -18.291,11.487 -9.472,16.6 h 0.011 m -36.862,122.355 -4.052,-3.858 -8.127,-1.289 -1.343,3.869 -10.836,-1.278 -0.681,-5.135 h -8.123 l -8.798,5.135 h -15.56 l -1.355,-3.856 -25.041,-2.59 -4.063,3.867 -10.138,-2.556 -1.359,-9.016 -4.735,-0.661 -5.418,9.677 -18.273,-0.65 c 3.272,1.538 30.551,17.824 72.403,21.214 55.5,4.487 81.896,-8.991 81.896,-8.991 l -2.025,-1.951 -24.371,-1.918 v -0.013 z"
       transform="matrix(0.05110267,0,0,0.05110267,81.178619,119.77829)"
       clip-path="url(#SVGID_5_-12)"
       id="path3315"
       style="fill:#000000" />
    <path
       d="m 200.897,116.781 c -1.04,0 -2.184,0.428 -3.348,1.089 2.741,-0.802 4.03,-1.089 3.348,-1.089 m 67.869,13.235 0.677,-9.925 -10.473,0.655 1.382,9.27 h 8.414 M 150.528,301.594 c -2.113,-1.988 -0.699,-10.608 -0.699,-10.608 0,0 -31.488,-16.545 -65.767,-26.493 -4.227,-1.225 -2.091,-9.932 2.091,-13.23 l -1.387,-9.297 c -0.693,-4.622 7.005,-27.148 14.698,-29.12 7.699,-2 -0.705,13.235 -0.705,13.235 l -7.688,4.637 c 0,0 9.092,10.592 11.199,10.592 2.092,0 5.591,-5.31 5.591,-5.31 l -9.79,-6.604 9.091,-3.988 0.574,-3.489 1.528,-0.487 15.062,-22.809 c 10.407,-4.258 23.199,-9.535 24.824,-10.31 2.806,-1.316 22.387,-12.569 25.887,-15.213 3.51,-2.666 11.187,-1.988 13.982,-1.988 2.812,0 7,-1.333 7.698,-8.631 0.699,-7.281 3.5,-8.608 5.607,-6.615 2.102,1.967 -2.107,5.293 2.796,6.615 4.893,1.333 9.092,4.644 12.597,1.333 2.557,-2.422 -0.867,-5.186 -3.17,-7.271 h 38.846 l 4.205,-11.947 -9.097,-1.321 -33.596,-3.305 v -3.982 l -2.676,0.456 c 3.635,-19.987 25.236,-16.692 8.972,-28.259 -0.986,-0.71 -15.213,22.418 -18.837,21.97 -6.562,-0.868 -15.029,-0.938 -16.833,1.197 -2.396,2.817 5.363,-9.688 12.038,-13.479 -7.964,2.346 -22.234,-4.903 -47.964,13.273 -8.701,6.15 -30.541,31.066 -39.528,40.645 -37.968,44.826 -41.029,83.175 -41.029,84.876 0,3.31 8.04,5.179 8.733,9.167 0.704,3.95 -13.29,17.218 -13.29,23.839 0,3.044 -7.005,36.114 8.381,77.496 13.647,39.257 40.054,73.879 43.445,76.046 l 9.725,-5.158 c 0,0 -16.091,-28.486 -16.784,-31.141 -0.693,-2.647 18.188,-41.068 27.295,-39.727 9.091,1.29 6.994,3.968 12.591,0.65 5.602,-3.292 9.096,-30.479 15.392,-33.113 6.301,-2.663 13.29,-5.969 12.596,-12.592 -0.729,-6.644 -24.513,-18.557 -26.604,-20.54 m 151.819,-194.755 -18.888,-6.626 3.5,10.608 15.388,-3.982 m -70.666,24.511 c 2.107,0 44.074,-27.81 39.881,-28.481 -4.188,-0.655 -4.887,0 -16.102,-1.327 -11.177,-1.322 -23.084,15.901 -25.875,18.562 -2.802,2.647 -1.859,11.246 2.096,11.246 m 192.63,199.731 5.42,-7.031 -5.42,-1.905 -4.062,5.104 -4.734,7.02 4.05,1.909 4.746,-5.097 m 23.687,22.995 -1.356,-10.228 h -8.785 l -0.682,7.659 -8.139,-1.269 -2.016,-8.3 -4.063,-2.559 -4.745,5.745 -4.735,-1.268 -1.366,4.452 5.428,1.301 v 41.479 l 19.159,4.615 c -0.445,0.759 -0.771,1.41 -0.879,1.756 -1.364,4.477 5.406,6.415 10.144,4.477 1.753,-0.705 12.797,-4.952 16.295,-13.283 4.879,-11.605 8.03,-28.314 8.877,-33.722 l -2.146,-4.693 -13.545,5.117 -7.466,-1.28 h 0.02 m -6.783,-169.88 c -30.978,-46.973 -105.41,-77.669 -105.41,-77.669 l -19.166,10.039 -2.722,-4.453 -6.761,-2.563 v 5.753 l 6.091,5.115 -4.053,1.912 -15.582,1.268 -35.211,19.158 3.381,15.322 -4.075,1.284 -2.015,3.186 11.512,17.223 0.671,5.759 -9.476,1.913 v 11.486 l -5.412,1.273 0.677,8.944 -46.058,31.938 1.355,17.852 c 3.38,4.475 29.798,31.293 29.798,31.293 0,0 30.464,1.263 37.237,-2.551 6.777,-3.831 2.025,3.831 4.068,5.748 2.016,1.923 2.709,15.322 4.724,16.601 2.038,1.271 0,8.923 2.709,11.502 2.71,2.534 2.71,33.19 2.71,33.19 0,0 16.252,27.445 16.252,34.468 0,7.021 -0.683,6.382 12.189,5.742 12.863,-0.628 15.571,-5.742 18.281,-7.649 2.709,-1.908 2.709,-6.383 5.417,-10.229 2.731,-3.839 7.455,-18.499 13.556,-23.602 6.078,-5.126 22.343,-8.96 23.686,-17.879 1.356,-8.949 7.443,-15.972 7.443,-15.972 l 29.278,-30.968 -0.823,4.161 -0.671,15.95 8.81,-3.187 -0.672,-17.25 -3.154,-3.343 0.446,-0.487 c 0,0 -2.037,-3.831 -4.734,-3.831 -2.712,0 -18.974,3.831 -21.672,3.196 -2.711,-0.644 -14.228,-31.292 -16.253,-32.549 -2.039,-1.279 -14.889,-22.359 -14.889,-22.359 0,0 29.776,35.751 34.521,49.795 2.751,8.18 13.089,0.563 21.497,-7.97 l 2.222,5.429 5.407,-1.29 -0.671,-6.381 h 6.088 v 9.573 l -2.024,5.115 -0.694,8.29 5.429,5.119 2.71,-4.459 8.776,-8.311 10.162,-5.108 2.721,5.108 1.354,7.027 -2.709,7.655 -5.417,4.47 -2.708,11.491 v 5.743 l -6.091,-3.836 -0.671,-12.118 -8.8,0.648 -4.051,10.842 6.089,8.948 14.216,1.92 11.507,-10.868 1.354,-21.044 5.127,-6.766 c 3.337,8.576 5.722,17.548 5.722,25.914 0,9.167 7.259,-4.628 3.707,-32.583 0.003,-0.001 -5.567,-66.402 -36.255,-97.088 z m -135.423,27.505 -36.561,-1.294 15.56,-12.759 h 8.127 l 12.874,8.928 v 5.125 m 44.706,-4.469 v 5.743 h -15.569 l 1.354,3.841 -9.493,1.289 -0.66,3.169 -6.772,-1.256 -12.2,-2.568 2.038,-3.181 2.037,-3.846 6.771,-7.022 2.72,5.115 10.142,-0.646 5.418,-5.754 20.999,3.836 -6.785,1.28 m 1.345,-8.305 -8.128,1.273 -1.343,-5.753 10.143,-1.268 1.366,-5.743 7.454,7.666 -9.492,3.814 v 0.011 m 39.289,198.535 -4.746,3.837 0.674,9.579 h 6.088 v -8.278 l 5.441,-7.043 v -14.672 l -3.404,-0.662 -4.053,17.239 v 0 m -45.369,-19.135 c 0,0 -4.746,1.234 0.662,3.185 5.418,1.93 27.09,-31.271 27.09,-31.271 l -18.291,11.487 -9.472,16.6 h 0.011 m -36.862,122.355 -4.052,-3.858 -8.127,-1.289 -1.343,3.869 -10.836,-1.278 -0.681,-5.135 h -8.123 l -8.798,5.135 h -15.56 l -1.355,-3.856 -25.041,-2.59 -4.063,3.867 -10.138,-2.556 -1.359,-9.016 -4.735,-0.661 -5.418,9.677 -18.273,-0.65 c 3.272,1.538 30.551,17.824 72.403,21.214 55.5,4.487 81.896,-8.991 81.896,-8.991 l -2.025,-1.951 -24.371,-1.918 v -0.013 z"
       transform="matrix(0.05110267,0,0,0.05110267,48.718984,93.55703)"
       clip-path="url(#SVGID_5_-3)"
       id="path3315-1"
       style="fill:#000000" />
    <path
       d="m 200.897,116.781 c -1.04,0 -2.184,0.428 -3.348,1.089 2.741,-0.802 4.03,-1.089 3.348,-1.089 m 67.869,13.235 0.677,-9.925 -10.473,0.655 1.382,9.27 h 8.414 M 150.528,301.594 c -2.113,-1.988 -0.699,-10.608 -0.699,-10.608 0,0 -31.488,-16.545 -65.767,-26.493 -4.227,-1.225 -2.091,-9.932 2.091,-13.23 l -1.387,-9.297 c -0.693,-4.622 7.005,-27.148 14.698,-29.12 7.699,-2 -0.705,13.235 -0.705,13.235 l -7.688,4.637 c 0,0 9.092,10.592 11.199,10.592 2.092,0 5.591,-5.31 5.591,-5.31 l -9.79,-6.604 9.091,-3.988 0.574,-3.489 1.528,-0.487 15.062,-22.809 c 10.407,-4.258 23.199,-9.535 24.824,-10.31 2.806,-1.316 22.387,-12.569 25.887,-15.213 3.51,-2.666 11.187,-1.988 13.982,-1.988 2.812,0 7,-1.333 7.698,-8.631 0.699,-7.281 3.5,-8.608 5.607,-6.615 2.102,1.967 -2.107,5.293 2.796,6.615 4.893,1.333 9.092,4.644 12.597,1.333 2.557,-2.422 -0.867,-5.186 -3.17,-7.271 h 38.846 l 4.205,-11.947 -9.097,-1.321 -33.596,-3.305 v -3.982 l -2.676,0.456 c 3.635,-19.987 25.236,-16.692 8.972,-28.259 -0.986,-0.71 -15.213,22.418 -18.837,21.97 -6.562,-0.868 -15.029,-0.938 -16.833,1.197 -2.396,2.817 5.363,-9.688 12.038,-13.479 -7.964,2.346 -22.234,-4.903 -47.964,13.273 -8.701,6.15 -30.541,31.066 -39.528,40.645 -37.968,44.826 -41.029,83.175 -41.029,84.876 0,3.31 8.04,5.179 8.733,9.167 0.704,3.95 -13.29,17.218 -13.29,23.839 0,3.044 -7.005,36.114 8.381,77.496 13.647,39.257 40.054,73.879 43.445,76.046 l 9.725,-5.158 c 0,0 -16.091,-28.486 -16.784,-31.141 -0.693,-2.647 18.188,-41.068 27.295,-39.727 9.091,1.29 6.994,3.968 12.591,0.65 5.602,-3.292 9.096,-30.479 15.392,-33.113 6.301,-2.663 13.29,-5.969 12.596,-12.592 -0.729,-6.644 -24.513,-18.557 -26.604,-20.54 m 151.819,-194.755 -18.888,-6.626 3.5,10.608 15.388,-3.982 m -70.666,24.511 c 2.107,0 44.074,-27.81 39.881,-28.481 -4.188,-0.655 -4.887,0 -16.102,-1.327 -11.177,-1.322 -23.084,15.901 -25.875,18.562 -2.802,2.647 -1.859,11.246 2.096,11.246 m 192.63,199.731 5.42,-7.031 -5.42,-1.905 -4.062,5.104 -4.734,7.02 4.05,1.909 4.746,-5.097 m 23.687,22.995 -1.356,-10.228 h -8.785 l -0.682,7.659 -8.139,-1.269 -2.016,-8.3 -4.063,-2.559 -4.745,5.745 -4.735,-1.268 -1.366,4.452 5.428,1.301 v 41.479 l 19.159,4.615 c -0.445,0.759 -0.771,1.41 -0.879,1.756 -1.364,4.477 5.406,6.415 10.144,4.477 1.753,-0.705 12.797,-4.952 16.295,-13.283 4.879,-11.605 8.03,-28.314 8.877,-33.722 l -2.146,-4.693 -13.545,5.117 -7.466,-1.28 h 0.02 m -6.783,-169.88 c -30.978,-46.973 -105.41,-77.669 -105.41,-77.669 l -19.166,10.039 -2.722,-4.453 -6.761,-2.563 v 5.753 l 6.091,5.115 -4.053,1.912 -15.582,1.268 -35.211,19.158 3.381,15.322 -4.075,1.284 -2.015,3.186 11.512,17.223 0.671,5.759 -9.476,1.913 v 11.486 l -5.412,1.273 0.677,8.944 -46.058,31.938 1.355,17.852 c 3.38,4.475 29.798,31.293 29.798,31.293 0,0 30.464,1.263 37.237,-2.551 6.777,-3.831 2.025,3.831 4.068,5.748 2.016,1.923 2.709,15.322 4.724,16.601 2.038,1.271 0,8.923 2.709,11.502 2.71,2.534 2.71,33.19 2.71,33.19 0,0 16.252,27.445 16.252,34.468 0,7.021 -0.683,6.382 12.189,5.742 12.863,-0.628 15.571,-5.742 18.281,-7.649 2.709,-1.908 2.709,-6.383 5.417,-10.229 2.731,-3.839 7.455,-18.499 13.556,-23.602 6.078,-5.126 22.343,-8.96 23.686,-17.879 1.356,-8.949 7.443,-15.972 7.443,-15.972 l 29.278,-30.968 -0.823,4.161 -0.671,15.95 8.81,-3.187 -0.672,-17.25 -3.154,-3.343 0.446,-0.487 c 0,0 -2.037,-3.831 -4.734,-3.831 -2.712,0 -18.974,3.831 -21.672,3.196 -2.711,-0.644 -14.228,-31.292 -16.253,-32.549 -2.039,-1.279 -14.889,-22.359 -14.889,-22.359 0,0 29.776,35.751 34.521,49.795 2.751,8.18 13.089,0.563 21.497,-7.97 l 2.222,5.429 5.407,-1.29 -0.671,-6.381 h 6.088 v 9.573 l -2.024,5.115 -0.694,8.29 5.429,5.119 2.71,-4.459 8.776,-8.311 10.162,-5.108 2.721,5.108 1.354,7.027 -2.709,7.655 -5.417,4.47 -2.708,11.491 v 5.743 l -6.091,-3.836 -0.671,-12.118 -8.8,0.648 -4.051,10.842 6.089,8.948 14.216,1.92 11.507,-10.868 1.354,-21.044 5.127,-6.766 c 3.337,8.576 5.722,17.548 5.722,25.914 0,9.167 7.259,-4.628 3.707,-32.583 0.003,-0.001 -5.567,-66.402 -36.255,-97.088 z m -135.423,27.505 -36.561,-1.294 15.56,-12.759 h 8.127 l 12.874,8.928 v 5.125 m 44.706,-4.469 v 5.743 h -15.569 l 1.354,3.841 -9.493,1.289 -0.66,3.169 -6.772,-1.256 -12.2,-2.568 2.038,-3.181 2.037,-3.846 6.771,-7.022 2.72,5.115 10.142,-0.646 5.418,-5.754 20.999,3.836 -6.785,1.28 m 1.345,-8.305 -8.128,1.273 -1.343,-5.753 10.143,-1.268 1.366,-5.743 7.454,7.666 -9.492,3.814 v 0.011 m 39.289,198.535 -4.746,3.837 0.674,9.579 h 6.088 v -8.278 l 5.441,-7.043 v -14.672 l -3.404,-0.662 -4.053,17.239 v 0 m -45.369,-19.135 c 0,0 -4.746,1.234 0.662,3.185 5.418,1.93 27.09,-31.271 27.09,-31.271 l -18.291,11.487 -9.472,16.6 h 0.011 m -36.862,122.355 -4.052,-3.858 -8.127,-1.289 -1.343,3.869 -10.836,-1.278 -0.681,-5.135 h -8.123 l -8.798,5.135 h -15.56 l -1.355,-3.856 -25.041,-2.59 -4.063,3.867 -10.138,-2.556 -1.359,-9.016 -4.735,-0.661 -5.418,9.677 -18.273,-0.65 c 3.272,1.538 30.551,17.824 72.403,21.214 55.5,4.487 81.896,-8.991 81.896,-8.991 l -2.025,-1.951 -24.371,-1.918 v -0.013 z"
       transform="matrix(0.05110267,0,0,0.05110267,48.718984,93.55703)"
       clip-path="url(#SVGID_5_-0)"
       id="path3315-4"
       style="fill:#000000" />
    <path
       d="m 200.897,116.781 c -1.04,0 -2.184,0.428 -3.348,1.089 2.741,-0.802 4.03,-1.089 3.348,-1.089 m 67.869,13.235 0.677,-9.925 -10.473,0.655 1.382,9.27 h 8.414 M 150.528,301.594 c -2.113,-1.988 -0.699,-10.608 -0.699,-10.608 0,0 -31.488,-16.545 -65.767,-26.493 -4.227,-1.225 -2.091,-9.932 2.091,-13.23 l -1.387,-9.297 c -0.693,-4.622 7.005,-27.148 14.698,-29.12 7.699,-2 -0.705,13.235 -0.705,13.235 l -7.688,4.637 c 0,0 9.092,10.592 11.199,10.592 2.092,0 5.591,-5.31 5.591,-5.31 l -9.79,-6.604 9.091,-3.988 0.574,-3.489 1.528,-0.487 15.062,-22.809 c 10.407,-4.258 23.199,-9.535 24.824,-10.31 2.806,-1.316 22.387,-12.569 25.887,-15.213 3.51,-2.666 11.187,-1.988 13.982,-1.988 2.812,0 7,-1.333 7.698,-8.631 0.699,-7.281 3.5,-8.608 5.607,-6.615 2.102,1.967 -2.107,5.293 2.796,6.615 4.893,1.333 9.092,4.644 12.597,1.333 2.557,-2.422 -0.867,-5.186 -3.17,-7.271 h 38.846 l 4.205,-11.947 -9.097,-1.321 -33.596,-3.305 v -3.982 l -2.676,0.456 c 3.635,-19.987 25.236,-16.692 8.972,-28.259 -0.986,-0.71 -15.213,22.418 -18.837,21.97 -6.562,-0.868 -15.029,-0.938 -16.833,1.197 -2.396,2.817 5.363,-9.688 12.038,-13.479 -7.964,2.346 -22.234,-4.903 -47.964,13.273 -8.701,6.15 -30.541,31.066 -39.528,40.645 -37.968,44.826 -41.029,83.175 -41.029,84.876 0,3.31 8.04,5.179 8.733,9.167 0.704,3.95 -13.29,17.218 -13.29,23.839 0,3.044 -7.005,36.114 8.381,77.496 13.647,39.257 40.054,73.879 43.445,76.046 l 9.725,-5.158 c 0,0 -16.091,-28.486 -16.784,-31.141 -0.693,-2.647 18.188,-41.068 27.295,-39.727 9.091,1.29 6.994,3.968 12.591,0.65 5.602,-3.292 9.096,-30.479 15.392,-33.113 6.301,-2.663 13.29,-5.969 12.596,-12.592 -0.729,-6.644 -24.513,-18.557 -26.604,-20.54 m 151.819,-194.755 -18.888,-6.626 3.5,10.608 15.388,-3.982 m -70.666,24.511 c 2.107,0 44.074,-27.81 39.881,-28.481 -4.188,-0.655 -4.887,0 -16.102,-1.327 -11.177,-1.322 -23.084,15.901 -25.875,18.562 -2.802,2.647 -1.859,11.246 2.096,11.246 m 192.63,199.731 5.42,-7.031 -5.42,-1.905 -4.062,5.104 -4.734,7.02 4.05,1.909 4.746,-5.097 m 23.687,22.995 -1.356,-10.228 h -8.785 l -0.682,7.659 -8.139,-1.269 -2.016,-8.3 -4.063,-2.559 -4.745,5.745 -4.735,-1.268 -1.366,4.452 5.428,1.301 v 41.479 l 19.159,4.615 c -0.445,0.759 -0.771,1.41 -0.879,1.756 -1.364,4.477 5.406,6.415 10.144,4.477 1.753,-0.705 12.797,-4.952 16.295,-13.283 4.879,-11.605 8.03,-28.314 8.877,-33.722 l -2.146,-4.693 -13.545,5.117 -7.466,-1.28 h 0.02 m -6.783,-169.88 c -30.978,-46.973 -105.41,-77.669 -105.41,-77.669 l -19.166,10.039 -2.722,-4.453 -6.761,-2.563 v 5.753 l 6.091,5.115 -4.053,1.912 -15.582,1.268 -35.211,19.158 3.381,15.322 -4.075,1.284 -2.015,3.186 11.512,17.223 0.671,5.759 -9.476,1.913 v 11.486 l -5.412,1.273 0.677,8.944 -46.058,31.938 1.355,17.852 c 3.38,4.475 29.798,31.293 29.798,31.293 0,0 30.464,1.263 37.237,-2.551 6.777,-3.831 2.025,3.831 4.068,5.748 2.016,1.923 2.709,15.322 4.724,16.601 2.038,1.271 0,8.923 2.709,11.502 2.71,2.534 2.71,33.19 2.71,33.19 0,0 16.252,27.445 16.252,34.468 0,7.021 -0.683,6.382 12.189,5.742 12.863,-0.628 15.571,-5.742 18.281,-7.649 2.709,-1.908 2.709,-6.383 5.417,-10.229 2.731,-3.839 7.455,-18.499 13.556,-23.602 6.078,-5.126 22.343,-8.96 23.686,-17.879 1.356,-8.949 7.443,-15.972 7.443,-15.972 l 29.278,-30.968 -0.823,4.161 -0.671,15.95 8.81,-3.187 -0.672,-17.25 -3.154,-3.343 0.446,-0.487 c 0,0 -2.037,-3.831 -4.734,-3.831 -2.712,0 -18.974,3.831 -21.672,3.196 -2.711,-0.644 -14.228,-31.292 -16.253,-32.549 -2.039,-1.279 -14.889,-22.359 -14.889,-22.359 0,0 29.776,35.751 34.521,49.795 2.751,8.18 13.089,0.563 21.497,-7.97 l 2.222,5.429 5.407,-1.29 -0.671,-6.381 h 6.088 v 9.573 l -2.024,5.115 -0.694,8.29 5.429,5.119 2.71,-4.459 8.776,-8.311 10.162,-5.108 2.721,5.108 1.354,7.027 -2.709,7.655 -5.417,4.47 -2.708,11.491 v 5.743 l -6.091,-3.836 -0.671,-12.118 -8.8,0.648 -4.051,10.842 6.089,8.948 14.216,1.92 11.507,-10.868 1.354,-21.044 5.127,-6.766 c 3.337,8.576 5.722,17.548 5.722,25.914 0,9.167 7.259,-4.628 3.707,-32.583 0.003,-0.001 -5.567,-66.402 -36.255,-97.088 z m -135.423,27.505 -36.561,-1.294 15.56,-12.759 h 8.127 l 12.874,8.928 v 5.125 m 44.706,-4.469 v 5.743 h -15.569 l 1.354,3.841 -9.493,1.289 -0.66,3.169 -6.772,-1.256 -12.2,-2.568 2.038,-3.181 2.037,-3.846 6.771,-7.022 2.72,5.115 10.142,-0.646 5.418,-5.754 20.999,3.836 -6.785,1.28 m 1.345,-8.305 -8.128,1.273 -1.343,-5.753 10.143,-1.268 1.366,-5.743 7.454,7.666 -9.492,3.814 v 0.011 m 39.289,198.535 -4.746,3.837 0.674,9.579 h 6.088 v -8.278 l 5.441,-7.043 v -14.672 l -3.404,-0.662 -4.053,17.239 v 0 m -45.369,-19.135 c 0,0 -4.746,1.234 0.662,3.185 5.418,1.93 27.09,-31.271 27.09,-31.271 l -18.291,11.487 -9.472,16.6 h 0.011 m -36.862,122.355 -4.052,-3.858 -8.127,-1.289 -1.343,3.869 -10.836,-1.278 -0.681,-5.135 h -8.123 l -8.798,5.135 h -15.56 l -1.355,-3.856 -25.041,-2.59 -4.063,3.867 -10.138,-2.556 -1.359,-9.016 -4.735,-0.661 -5.418,9.677 -18.273,-0.65 c 3.272,1.538 30.551,17.824 72.403,21.214 55.5,4.487 81.896,-8.991 81.896,-8.991 l -2.025,-1.951 -24.371,-1.918 v -0.013 z"
       transform="matrix(0.05110267,0,0,0.05110267,48.718984,93.55703)"
       clip-path="url(#SVGID_5_-8)"
       id="path3315-0"
       style="fill:#000000" />
    <path
       d="m 200.897,116.781 c -1.04,0 -2.184,0.428 -3.348,1.089 2.741,-0.802 4.03,-1.089 3.348,-1.089 m 67.869,13.235 0.677,-9.925 -10.473,0.655 1.382,9.27 h 8.414 M 150.528,301.594 c -2.113,-1.988 -0.699,-10.608 -0.699,-10.608 0,0 -31.488,-16.545 -65.767,-26.493 -4.227,-1.225 -2.091,-9.932 2.091,-13.23 l -1.387,-9.297 c -0.693,-4.622 7.005,-27.148 14.698,-29.12 7.699,-2 -0.705,13.235 -0.705,13.235 l -7.688,4.637 c 0,0 9.092,10.592 11.199,10.592 2.092,0 5.591,-5.31 5.591,-5.31 l -9.79,-6.604 9.091,-3.988 0.574,-3.489 1.528,-0.487 15.062,-22.809 c 10.407,-4.258 23.199,-9.535 24.824,-10.31 2.806,-1.316 22.387,-12.569 25.887,-15.213 3.51,-2.666 11.187,-1.988 13.982,-1.988 2.812,0 7,-1.333 7.698,-8.631 0.699,-7.281 3.5,-8.608 5.607,-6.615 2.102,1.967 -2.107,5.293 2.796,6.615 4.893,1.333 9.092,4.644 12.597,1.333 2.557,-2.422 -0.867,-5.186 -3.17,-7.271 h 38.846 l 4.205,-11.947 -9.097,-1.321 -33.596,-3.305 v -3.982 l -2.676,0.456 c 3.635,-19.987 25.236,-16.692 8.972,-28.259 -0.986,-0.71 -15.213,22.418 -18.837,21.97 -6.562,-0.868 -15.029,-0.938 -16.833,1.197 -2.396,2.817 5.363,-9.688 12.038,-13.479 -7.964,2.346 -22.234,-4.903 -47.964,13.273 -8.701,6.15 -30.541,31.066 -39.528,40.645 -37.968,44.826 -41.029,83.175 -41.029,84.876 0,3.31 8.04,5.179 8.733,9.167 0.704,3.95 -13.29,17.218 -13.29,23.839 0,3.044 -7.005,36.114 8.381,77.496 13.647,39.257 40.054,73.879 43.445,76.046 l 9.725,-5.158 c 0,0 -16.091,-28.486 -16.784,-31.141 -0.693,-2.647 18.188,-41.068 27.295,-39.727 9.091,1.29 6.994,3.968 12.591,0.65 5.602,-3.292 9.096,-30.479 15.392,-33.113 6.301,-2.663 13.29,-5.969 12.596,-12.592 -0.729,-6.644 -24.513,-18.557 -26.604,-20.54 m 151.819,-194.755 -18.888,-6.626 3.5,10.608 15.388,-3.982 m -70.666,24.511 c 2.107,0 44.074,-27.81 39.881,-28.481 -4.188,-0.655 -4.887,0 -16.102,-1.327 -11.177,-1.322 -23.084,15.901 -25.875,18.562 -2.802,2.647 -1.859,11.246 2.096,11.246 m 192.63,199.731 5.42,-7.031 -5.42,-1.905 -4.062,5.104 -4.734,7.02 4.05,1.909 4.746,-5.097 m 23.687,22.995 -1.356,-10.228 h -8.785 l -0.682,7.659 -8.139,-1.269 -2.016,-8.3 -4.063,-2.559 -4.745,5.745 -4.735,-1.268 -1.366,4.452 5.428,1.301 v 41.479 l 19.159,4.615 c -0.445,0.759 -0.771,1.41 -0.879,1.756 -1.364,4.477 5.406,6.415 10.144,4.477 1.753,-0.705 12.797,-4.952 16.295,-13.283 4.879,-11.605 8.03,-28.314 8.877,-33.722 l -2.146,-4.693 -13.545,5.117 -7.466,-1.28 h 0.02 m -6.783,-169.88 c -30.978,-46.973 -105.41,-77.669 -105.41,-77.669 l -19.166,10.039 -2.722,-4.453 -6.761,-2.563 v 5.753 l 6.091,5.115 -4.053,1.912 -15.582,1.268 -35.211,19.158 3.381,15.322 -4.075,1.284 -2.015,3.186 11.512,17.223 0.671,5.759 -9.476,1.913 v 11.486 l -5.412,1.273 0.677,8.944 -46.058,31.938 1.355,17.852 c 3.38,4.475 29.798,31.293 29.798,31.293 0,0 30.464,1.263 37.237,-2.551 6.777,-3.831 2.025,3.831 4.068,5.748 2.016,1.923 2.709,15.322 4.724,16.601 2.038,1.271 0,8.923 2.709,11.502 2.71,2.534 2.71,33.19 2.71,33.19 0,0 16.252,27.445 16.252,34.468 0,7.021 -0.683,6.382 12.189,5.742 12.863,-0.628 15.571,-5.742 18.281,-7.649 2.709,-1.908 2.709,-6.383 5.417,-10.229 2.731,-3.839 7.455,-18.499 13.556,-23.602 6.078,-5.126 22.343,-8.96 23.686,-17.879 1.356,-8.949 7.443,-15.972 7.443,-15.972 l 29.278,-30.968 -0.823,4.161 -0.671,15.95 8.81,-3.187 -0.672,-17.25 -3.154,-3.343 0.446,-0.487 c 0,0 -2.037,-3.831 -4.734,-3.831 -2.712,0 -18.974,3.831 -21.672,3.196 -2.711,-0.644 -14.228,-31.292 -16.253,-32.549 -2.039,-1.279 -14.889,-22.359 -14.889,-22.359 0,0 29.776,35.751 34.521,49.795 2.751,8.18 13.089,0.563 21.497,-7.97 l 2.222,5.429 5.407,-1.29 -0.671,-6.381 h 6.088 v 9.573 l -2.024,5.115 -0.694,8.29 5.429,5.119 2.71,-4.459 8.776,-8.311 10.162,-5.108 2.721,5.108 1.354,7.027 -2.709,7.655 -5.417,4.47 -2.708,11.491 v 5.743 l -6.091,-3.836 -0.671,-12.118 -8.8,0.648 -4.051,10.842 6.089,8.948 14.216,1.92 11.507,-10.868 1.354,-21.044 5.127,-6.766 c 3.337,8.576 5.722,17.548 5.722,25.914 0,9.167 7.259,-4.628 3.707,-32.583 0.003,-0.001 -5.567,-66.402 -36.255,-97.088 z m -135.423,27.505 -36.561,-1.294 15.56,-12.759 h 8.127 l 12.874,8.928 v 5.125 m 44.706,-4.469 v 5.743 h -15.569 l 1.354,3.841 -9.493,1.289 -0.66,3.169 -6.772,-1.256 -12.2,-2.568 2.038,-3.181 2.037,-3.846 6.771,-7.022 2.72,5.115 10.142,-0.646 5.418,-5.754 20.999,3.836 -6.785,1.28 m 1.345,-8.305 -8.128,1.273 -1.343,-5.753 10.143,-1.268 1.366,-5.743 7.454,7.666 -9.492,3.814 v 0.011 m 39.289,198.535 -4.746,3.837 0.674,9.579 h 6.088 v -8.278 l 5.441,-7.043 v -14.672 l -3.404,-0.662 -4.053,17.239 v 0 m -45.369,-19.135 c 0,0 -4.746,1.234 0.662,3.185 5.418,1.93 27.09,-31.271 27.09,-31.271 l -18.291,11.487 -9.472,16.6 h 0.011 m -36.862,122.355 -4.052,-3.858 -8.127,-1.289 -1.343,3.869 -10.836,-1.278 -0.681,-5.135 h -8.123 l -8.798,5.135 h -15.56 l -1.355,-3.856 -25.041,-2.59 -4.063,3.867 -10.138,-2.556 -1.359,-9.016 -4.735,-0.661 -5.418,9.677 -18.273,-0.65 c 3.272,1.538 30.551,17.824 72.403,21.214 55.5,4.487 81.896,-8.991 81.896,-8.991 l -2.025,-1.951 -24.371,-1.918 v -0.013 z"
       transform="matrix(0.05110267,0,0,0.05110267,49.578851,95.620711)"
       clip-path="url(#SVGID_5_-06)"
       id="path3315-3"
       style="fill:#ff00ff" />
    <g
       aria-label="CONPACT"
       id="text899"
       style="font-weight:bold;font-size:4.23333px;line-height:1.25;font-family:Montserrat;-inkscape-font-specification:'Montserrat Bold';fill:url(#linearGradient3142);stroke-width:0.264583">
      <path
         d="m 98.575265,113.49192 q -0.452967,0 -0.821266,-0.19474 -0.364067,-0.19896 -0.575733,-0.5461 -0.207433,-0.35136 -0.207433,-0.79163 0,-0.44027 0.207433,-0.7874 0.211666,-0.35136 0.575733,-0.5461 0.368299,-0.19896 0.825499,-0.19896 0.385233,0 0.694266,0.13546 0.313266,0.13547 0.524933,0.38947 l -0.440266,0.4064 q -0.300567,-0.34713 -0.745066,-0.34713 -0.275167,0 -0.491067,0.12276 -0.2159,0.11853 -0.338666,0.33443 -0.118533,0.2159 -0.118533,0.49107 0,0.27517 0.118533,0.49107 0.122766,0.2159 0.338666,0.33866 0.2159,0.11854 0.491067,0.11854 0.444499,0 0.745066,-0.35137 l 0.440266,0.4064 q -0.211667,0.25823 -0.524933,0.3937 -0.313266,0.13547 -0.698499,0.13547 z"
         id="path3690" />
      <path
         d="m 101.62664,113.49192 q -0.46144,0 -0.83397,-0.19897 -0.3683,-0.19897 -0.57997,-0.5461 -0.20743,-0.35137 -0.20743,-0.7874 0,-0.43603 0.20743,-0.78317 0.21167,-0.35136 0.57997,-0.55033 0.37253,-0.19896 0.83397,-0.19896 0.46143,0 0.82973,0.19896 0.3683,0.19897 0.57996,0.55033 0.21167,0.34714 0.21167,0.78317 0,0.43603 -0.21167,0.7874 -0.21166,0.34713 -0.57996,0.5461 -0.3683,0.19897 -0.82973,0.19897 z m 0,-0.5842 q 0.26246,0 0.47413,-0.11854 0.21166,-0.12276 0.3302,-0.33866 0.12276,-0.2159 0.12276,-0.49107 0,-0.27517 -0.12276,-0.49107 -0.11854,-0.2159 -0.3302,-0.33443 -0.21167,-0.12276 -0.47413,-0.12276 -0.26247,0 -0.47414,0.12276 -0.21166,0.11853 -0.33443,0.33443 -0.11853,0.2159 -0.11853,0.49107 0,0.27517 0.11853,0.49107 0.12277,0.2159 0.33443,0.33866 0.21167,0.11854 0.47414,0.11854 z"
         id="path3692" />
      <path
         d="m 106.48121,110.47779 v 2.96333 h -0.56304 l -1.47743,-1.79917 v 1.79917 h -0.67733 v -2.96333 h 0.56727 l 1.47319,1.79916 v -1.79916 z"
         id="path3694" />
      <path
         d="m 108.46915,110.47779 q 0.3937,0 0.68157,0.13123 0.2921,0.13123 0.44873,0.37253 0.15663,0.2413 0.15663,0.5715 0,0.32597 -0.15663,0.5715 -0.15663,0.2413 -0.44873,0.37253 -0.28787,0.127 -0.68157,0.127 h -0.5969 v 0.81704 h -0.6858 v -2.96333 z m -0.0381,1.58749 q 0.30904,0 0.4699,-0.13123 0.16087,-0.13547 0.16087,-0.381 0,-0.24977 -0.16087,-0.381 -0.16086,-0.13546 -0.4699,-0.13546 h -0.5588 v 1.02869 z"
         id="path3696" />
      <path
         d="m 112.04843,112.80612 h -1.37583 l -0.26247,0.635 h -0.70273 l 1.3208,-2.96333 h 0.67733 l 1.32503,2.96333 h -0.71966 z m -0.2159,-0.5207 -0.4699,-1.13454 -0.4699,1.13454 z"
         id="path3698" />
      <path
         d="m 114.71483,113.49192 q -0.45296,0 -0.82126,-0.19474 -0.36407,-0.19896 -0.57573,-0.5461 -0.20744,-0.35136 -0.20744,-0.79163 0,-0.44027 0.20744,-0.7874 0.21166,-0.35136 0.57573,-0.5461 0.3683,-0.19896 0.8255,-0.19896 0.38523,0 0.69426,0.13546 0.31327,0.13547 0.52494,0.38947 l -0.44027,0.4064 q -0.30057,-0.34713 -0.74507,-0.34713 -0.27516,0 -0.49106,0.12276 -0.2159,0.11853 -0.33867,0.33443 -0.11853,0.2159 -0.11853,0.49107 0,0.27517 0.11853,0.49107 0.12277,0.2159 0.33867,0.33866 0.2159,0.11854 0.49106,0.11854 0.4445,0 0.74507,-0.35137 l 0.44027,0.4064 q -0.21167,0.25823 -0.52494,0.3937 -0.31326,0.13547 -0.6985,0.13547 z"
         id="path3700" />
      <path
         d="m 116.97801,111.03659 h -0.94826 v -0.5588 h 2.58233 v 0.5588 h -0.94827 v 2.40453 h -0.6858 z"
         id="path3702" />
    </g>
  </g>
</svg>
